<?xml version="1.0" encoding="utf-8"?>
<!-- Generator: Adobe Illustrator 23.0.3, SVG Export Plug-In . SVG Version: 6.00 Build 0)  -->
<svg version="1.1" id="Layer_1" xmlns="http://www.w3.org/2000/svg" xmlns:xlink="http://www.w3.org/1999/xlink" x="0px" y="0px"
	 viewBox="0 0 589.3 570.6" style="enable-background:new 0 0 589.3 570.6;" xml:space="preserve">
<style type="text/css">
	.st0{fill-rule:evenodd;clip-rule:evenodd;fill:#D63A33;}
	.st1{fill:#FFFFFF;}
	.st2{fill-rule:evenodd;clip-rule:evenodd;fill:#FFFFFF;}
	.st3{fill:#D63A33;}
	.st4{font-family:'ArialMT';}
	.st5{font-size:75.1622px;}
	.st6{font-size:71.8039px;}
</style>
<g>
	<circle class="st0" cx="291.6" cy="287.6" r="283"/>
	<g>
		<g>
			<path class="st1" d="M43.7,329.6c-2.7,0.3-5.5,0.6-8.2,0.9c-0.8-8.1-1.2-16.5-1.3-25.1c2.8,0,5.5-0.1,8.3-0.1
				C42.5,313.7,42.9,321.7,43.7,329.6z"/>
			<path class="st1" d="M47.7,358c-2.7,0.6-5.4,1.3-8.1,1.9c-1.5-7.6-2.7-15.4-3.6-23.4c2.7-0.4,5.5-0.8,8.2-1.1
				C45.1,343.1,46.3,350.6,47.7,358z"/>
			<path class="st1" d="M54.4,384.4c-2.6,0.9-5.3,1.9-7.9,2.8c-2.2-7.1-4.1-14.3-5.7-21.8c2.7-0.7,5.4-1.4,8.1-2.1
				C50.4,370.6,52.3,377.6,54.4,384.4z"/>
			<path class="st1" d="M63.3,408.9c-2.5,1.2-5.1,2.4-7.6,3.6c-2.8-6.5-5.4-13.3-7.7-20.2c2.6-1,5.2-2,7.8-3
				C58.2,396.1,60.6,402.6,63.3,408.9z"/>
			<path class="st1" d="M74.5,431.5c-2.4,1.5-4.8,2.9-7.2,4.4c-3.4-6-6.5-12.2-9.5-18.6c2.5-1.3,5-2.5,7.5-3.8
				C68.2,419.7,71.2,425.7,74.5,431.5z"/>
			<path class="st1" d="M87.7,452.1c-2.3,1.7-4.5,3.4-6.8,5.1c-3.9-5.4-7.6-11.1-11.1-17c2.4-1.5,4.8-3,7.2-4.5
				C80.3,441.3,83.9,446.8,87.7,452.1z"/>
			<path class="st1" d="M102.7,470.7c-2.1,1.9-4.2,3.8-6.3,5.7c-4.4-4.9-8.6-10-12.6-15.4c2.2-1.7,4.5-3.5,6.7-5.2
				C94.4,461,98.4,466,102.7,470.7z"/>
			<path class="st1" d="M119.3,487.4c-1.9,2.1-3.8,4.2-5.7,6.3c-4.8-4.4-9.5-8.9-14-13.7c2.1-1.9,4.1-3.9,6.2-5.8
				C110.1,478.8,114.6,483.2,119.3,487.4z"/>
			<path class="st1" d="M137.4,502.2c-1.7,2.3-3.4,4.5-5.1,6.8c-5.2-3.8-10.3-7.9-15.2-12.1c1.9-2.1,3.7-4.2,5.6-6.4
				C127.5,494.6,132.4,498.5,137.4,502.2z"/>
			<path class="st1" d="M156.8,515c-1.5,2.4-3,4.8-4.5,7.2c-5.5-3.3-10.9-6.8-16.2-10.5c1.7-2.3,3.3-4.6,5-6.9
				C146.2,508.5,151.4,511.9,156.8,515z"/>
			<path class="st1" d="M177.3,525.9c-1.3,2.5-2.5,5-3.8,7.6c-5.8-2.7-11.5-5.7-17.1-8.9c1.4-2.4,2.9-4.9,4.3-7.3
				C166.1,520.4,171.6,523.3,177.3,525.9z"/>
			<path class="st1" d="M198.7,534.9c-1,2.6-2,5.3-3.1,7.9c-6-2.2-12-4.6-17.9-7.3c1.2-2.5,2.4-5.1,3.7-7.6
				C187,530.4,192.8,532.7,198.7,534.9z"/>
			<path class="st1" d="M220.8,541.8c-0.8,2.7-1.5,5.4-2.3,8.1c-6.2-1.7-12.4-3.6-18.5-5.7c1-2.6,2-5.3,2.9-7.9
				C208.8,538.4,214.8,540.2,220.8,541.8z"/>
			<path class="st1" d="M243.5,546.9c-0.5,2.8-1,5.5-1.6,8.3c-6.4-1.1-12.7-2.5-18.9-4c0.7-2.7,1.5-5.4,2.2-8.2
				C231.2,544.5,237.3,545.8,243.5,546.9z"/>
			<path class="st1" d="M266.6,550c-0.3,2.8-0.5,5.6-0.8,8.4c-6.4-0.6-12.8-1.4-19.2-2.4c0.5-2.8,0.9-5.5,1.4-8.3
				C254.1,548.6,260.3,549.4,266.6,550z"/>
			<path class="st1" d="M289.8,551.2c0,2.8,0,5.6,0,8.4c-6.5-0.1-12.9-0.3-19.4-0.8c0.2-2.8,0.4-5.6,0.6-8.4
				C277.3,550.8,283.6,551.1,289.8,551.2z"/>
			<path class="st1" d="M313.1,550.4c0.3,2.8,0.5,5.6,0.8,8.4c-6.4,0.5-12.9,0.8-19.4,0.8c-0.1-2.8-0.1-5.6-0.2-8.4
				C300.6,551.1,306.9,550.8,313.1,550.4z"/>
			<path class="st1" d="M336.2,547.6c0.5,2.8,1.1,5.6,1.6,8.3c-6.4,1-12.8,1.8-19.2,2.4c-0.3-2.8-0.6-5.6-0.9-8.4
				C323.9,549.4,330.1,548.6,336.2,547.6z"/>
			<path class="st1" d="M359,543c0.8,2.7,1.6,5.5,2.3,8.2c-6.3,1.6-12.6,2.9-18.9,4c-0.6-2.8-1.2-5.5-1.7-8.3
				C346.9,545.8,353,544.5,359,543z"/>
			<path class="st1" d="M381.3,536.4c1,2.7,2.1,5.3,3.1,8c-6.1,2.1-12.2,4-18.5,5.7c-0.8-2.7-1.7-5.4-2.5-8.1
				C369.4,540.2,375.4,538.4,381.3,536.4z"/>
			<path class="st1" d="M402.8,527.8c1.3,2.6,2.6,5.1,3.8,7.7c-5.9,2.6-11.8,5.1-17.9,7.3c-1.1-2.6-2.2-5.3-3.2-7.9
				C391.4,532.7,397.2,530.4,402.8,527.8z"/>
			<path class="st1" d="M423.5,517.3c1.5,2.4,3,4.9,4.5,7.3c-5.6,3.2-11.3,6.1-17.1,8.9c-1.3-2.5-2.7-5.1-4-7.6
				C412.6,523.2,418.1,520.4,423.5,517.3z"/>
			<path class="st1" d="M443.1,504.8c1.7,2.3,3.5,4.6,5.2,6.9c-5.3,3.7-10.7,7.2-16.2,10.5c-1.6-2.4-3.1-4.8-4.7-7.2
				C432.8,511.8,438,508.4,443.1,504.8z"/>
			<path class="st1" d="M461.5,490.5c1.9,2.1,3.9,4.3,5.8,6.4c-4.9,4.3-10,8.3-15.2,12.1c-1.8-2.3-3.6-4.5-5.3-6.8
				C451.8,498.5,456.7,494.6,461.5,490.5z"/>
			<path class="st1" d="M478.4,474.1c2.1,2,4.3,3.9,6.4,5.9c-4.5,4.8-9.1,9.4-14,13.7c-2-2.1-4-4.2-5.9-6.3
				C469.5,483.2,474.1,478.8,478.4,474.1z"/>
			<path class="st1" d="M493.7,455.8c2.3,1.7,4.6,3.5,6.9,5.2c-4,5.3-8.2,10.5-12.6,15.4c-2.2-1.9-4.3-3.8-6.5-5.7
				C485.8,466,489.8,461,493.7,455.8z"/>
			<path class="st1" d="M507.2,435.6c2.5,1.5,4.9,3,7.4,4.6c-3.5,5.9-7.2,11.5-11.1,17c-2.3-1.7-4.7-3.4-7-5.1
				C500.3,446.8,503.9,441.3,507.2,435.6z"/>
			<path class="st1" d="M518.8,413.5c2.6,1.3,5.2,2.5,7.8,3.8c-2.9,6.4-6.1,12.6-9.5,18.6c-2.5-1.5-5-2.9-7.5-4.4
				C512.9,425.7,516,419.7,518.8,413.5z"/>
			<path class="st1" d="M528.2,389.3c2.7,1,5.4,2,8.1,3c-2.3,7-4.9,13.7-7.7,20.2c-2.6-1.2-5.2-2.4-7.9-3.7
				C523.5,402.6,526,396.1,528.2,389.3z"/>
			<path class="st1" d="M535.3,363.3c2.8,0.7,5.6,1.4,8.4,2.1c-1.6,7.5-3.5,14.8-5.7,21.8c-2.7-0.9-5.5-1.9-8.2-2.8
				C531.9,377.6,533.7,370.5,535.3,363.3z"/>
			<path class="st1" d="M539.9,335.3c2.8,0.4,5.7,0.8,8.5,1.2c-0.9,8-2.1,15.8-3.6,23.4c-2.8-0.6-5.6-1.3-8.4-1.9
				C537.8,350.6,539,343.1,539.9,335.3z"/>
			<path class="st1" d="M541.8,305.4c2.9,0,5.7,0.1,8.6,0.1c-0.1,8.6-0.6,16.9-1.4,25.1c-2.9-0.3-5.7-0.6-8.6-1
				C541.2,321.7,541.6,313.6,541.8,305.4z"/>
		</g>
	</g>
</g>
<g>
	<path class="st2" d="M119.5,96.4c0,0.9,0.6,1.4,1,2.1c16.9,26.3,33.8,52.7,50.7,79c0.2,0.4,0.5,0.9,0.8,1.3c0.8,0.8,2,0.8,2.8,0.1
		c0.1-0.1,0.2-0.2,0.3-0.3c3.6-6.8,7.9-13.3,11.3-20.3c0.3-0.5,0.5-1,0.7-1.6c3.2-8.5,8.2-16.1,12.5-24c0.4-0.7,0.8-1.1,1.7-0.6
		c6.6,3.2,13.2,6.4,19.8,9.6c1.2,0.6,0.9,1.2,0.4,2c-2.5,4.5-5.4,8.8-8.3,13.1c-7.1,10.8-12.5,22.6-15.9,35.1
		c-1.8,7.1-2.8,14.4-2.8,21.7c-0.2,5.3,0,10.6,0.6,15.9c1,6.7,2.7,13.2,5.1,19.5c2.4,6.7,5.6,13.1,9.5,19c2.1,3.2,4.1,6.5,6,10
		c0.8-0.5,1.6-1.2,2-2c6.1-7.9,11.9-16,17.7-24.1c9.3-13,19.4-25.3,30.3-36.9c12.6-13.1,24.6-26.7,37.3-39.7c3.5-3.5,7-7,10.6-10.4
		c1.8-1.9,4.6-2.5,7.1-1.5c2.5,0.8,5,1.9,7.3,3.2c10.6,6.1,19.9,14,27.5,23.6c1.1,1.5,2.2,3,3.1,4.6c1.7,2.8,2.6,6.1,2.6,9.4
		c-0.1,12.8,0,25.6,0,38.3c0,9.1,0.8,18.2,1.5,27.3c0.3,3.4,0.4,6.9,0.6,10.3c0.1,1.4,0.2,2.7,0.3,4.1c0.2,0,0.5,0,0.7-0.1
		c15.4-8.4,28.3-19.5,37.7-34.5c5.8-9.2,9.5-19.6,10.8-30.4c1.5-13.4,0.1-26.9-4.1-39.7c-1.2-3.9-2.3-7.7-3.4-11.5
		c-0.2-0.6-0.2-1.1-0.4-1.7c-0.3-1,0.2-1.3,1.1-1.2h22.8c1.8,0,1.9,0,2.3,1.7c2.1,8.9,3.8,17.8,5,26.8c0.9,7,1.9,14.1,4.6,20.7
		c0.5,1.3,0.5,1.4,1.8,0.9c2.4-1,4.7-2.2,6.9-3.6c8-4.7,15.6-10,23.6-14.6c13.1-7.6,25.8-15.8,39-23.2c3.9-2.1,2.9-2.3,6.4,0.7
		c2.8,2.4,5.5,5.1,8.1,7.7c0.5,0.5,1.1,1,1.3,1.7c-4.6,2.8-9.2,5.6-13.7,8.4c-6.1,3.8-12.2,7.5-18.1,11.6l-0.9,0.6
		c-2,1.4-2.1,1.7-0.6,3.7c1.6,2.2,3.4,4.2,5.4,6.1c1.3,1.3,1.3,1.3,3.1,0.3l31-17.3l0.6-0.3c2.3-1.3,1.9-1.4,3,0.9
		c1.8,3.7,3.6,7.3,5.4,11c0.9,1.9,1.1,1.7-0.9,2.6l-33.4,14.9c-2.4,1.1-2.4,1.1-1.4,3.5s1.9,4.9,3,7.4c0.8,1.9,0.6,1.6,2.3,1
		c11.4-4.2,22.8-8.3,34.1-12.5l1.7-0.6c0.4,1.4,0.6,2.8,0.7,4.2c0.5,3.6,1,7.2,1.5,10.9c0.2,1.7,0.3,1.7-1.4,2.2l-29.5,8.5l-4.8,1.4
		c-0.6,0.2-1.1,0.5-1.1,1.3c0,3.4-0.1,6.8,1,10.1l37.6-7c0.2,1.4,0.3,2.8,0.2,4.3c0,3.6,0,7.2,0,10.8c0,1-0.2,1.5-1.4,1.6
		c-13.9,1.3-27.5,4.3-40.9,7.9c-17.4,4.7-34.4,10.6-51.4,16.4s-33.6,12.5-49.8,20.3c-11.2,5.4-22.4,10.6-33.4,16.4
		c-1.7,0.9-3.5,1.7-5.3,2.4c-0.8,0.2-1.3,0.9-1.2,1.7c0.1,3.2,0.5,6.3,1.1,9.4c2.9,15.3,5.7,30.7,9.4,45.9
		c5.4,22.5,12.2,44.7,20.4,66.3c3,7.7,6.4,15.4,9.5,23.1c1.2,2.8,2.2,5.7,2.8,8.7c-0.6,0.6-1.2,0.4-1.7,0.3
		c-22.9-0.3-45.8-0.6-68.7-0.8c-13.5-0.1-27-0.1-40.5-0.1c-0.6,0-1.2,0-1.7,0s-1-0.3-1.2-1c-1.6-7-3.4-13.9-4.3-21.1
		c-0.7-5.3-0.8-10.7-1-16.1c-0.1-4.6,0.1-9.2,0.6-13.7c0.1-1.7,0.1-1.7-1.5-1.7c-12.6-0.4-25.3-0.6-37.9-0.9
		c-5.5-0.1-11.1-0.1-16.6-0.2c-1.8-0.2-3.4,0.9-4,2.6c-1.2,3-2,6.1-2.5,9.3c-1.4,8.2-1.9,16.6-1.6,24.9c0,3.4,0.9,6.8,1.4,10.2
		c0.4,2.5,0.7,4.9,1.1,7.4c-0.7,0.3-1.5,0.4-2.2,0.3h-95.4c-1.9,0-1.9,0-1.7-1.9c1.1-8.7,2.6-17.4,4.6-26
		c5.8-26.6,13.7-52.6,22.6-78.2c5.7-16.3,13.2-31.8,21-47.2c2.6-5.1,5.2-10.1,7.8-15.1c0.6-0.9,0.5-2.1-0.3-2.8
		c-4.8-5.4-9.6-10.7-14.5-15.9c-8.4-8.7-16.7-17.6-25.7-25.7c-5.4-4.8-10.8-9.4-16.3-14.1c-3.5-3-7.1-6.1-10.4-9.3
		c-8.3-8-17.6-14.5-26.9-21.1c-13.8-9.8-28.4-18.4-42.7-27.5c-4.2-2.6-8.4-5.3-12.5-8c-1.8-1.2-1.7-1.2-1.3-3.5
		c1.1-6.2,3.9-11.8,5.7-17.8c0.8,0.2,1.6,0.6,2.2,1.1l35.5,22.4c0.5,0.3,1,0.6,1.4,1c0.5,0.4,0.9,0.2,1.2-0.3c1.6-2.6,3-5.4,4-8.3
		c0.4-1,0-2.2-0.8-2.9c-1.7-1.8-3.5-3.4-5.4-4.9c-7.3-5.7-14.6-11.4-21.9-17.1c-2.7-2-5.3-4.2-7.7-6.6c-1.3-1.3-1.3-1.3-0.5-2.9
		c2.8-5.4,5.6-10.8,8.4-16.2c0.2-0.7,0.7-1.3,1.3-1.7l35.7,34.7c0.7-0.2,1-0.7,1.3-1.1c2-2.6,4.1-5.2,6.1-7.8
		c1.1-1.5,1.4-1.2-0.1-2.8l-13.3-14.7c-5.8-6.4-11.7-12.9-17.6-19.2c-0.9-0.8-1.2-2.2-0.7-3.3c0.5-1.4,1.3-2.6,2.3-3.6
		c0.9-0.9,1.9-1.8,2.8-2.6c2.6-2.2,5.5-4.1,7.4-7.5c6.1,6.3,11.1,13.2,16.2,20.1c5.2,6.7,10.1,13.8,14.5,21.1c0.6,0,1.1-0.3,1.6-0.7
		c3.2-1.9,6.4-3.8,9.7-5.7c1.4-0.8,1.4-0.9,0.5-2.2c-4-6.1-8-12.1-12-18.2l-14.6-22.1c-0.4-0.7-0.9-1.3-1.2-1.9
		c0.2-0.7,0.7-0.7,1.2-0.9c5-1.7,10.1-3.4,15.1-5.1c0.7-0.1,1.4-0.4,1.9-0.9L119.5,96.4z M236.4,274.4c0,4.8-0.1,9.5,0,14.1
		c0,7.6,0.5,15.2,1.6,22.7c0.8,5.6,2.6,11,5.2,16.1c3.2,6.4,8.8,11.2,15.7,13.2c6.3,1.8,12.9,2.2,19.4,1.2c5.2-0.8,10.2-2.3,15-4.5
		c8-3.5,15.7-7.6,22.1-13.5c7.1-6.6,13.6-13.8,19.5-21.5c2.8-3.5,5.1-7.3,6.8-11.4c0.3-0.7,0.8-1.4,0.4-2.2l-0.7,0.3
		c-13.6,6.5-27.8,10.1-43,9.8c-8.6,0-17.2-1.3-25.4-3.7c-10.6-3.2-20.4-8-28.8-15.4c-1.7-1.5-3.4-2.9-5.2-4.1
		C238.2,274.8,237.3,274.4,236.4,274.4z"/>
</g>
<g id="Layer_3">
	<g>
		<g>
			<path class="st1" d="M167.9,80.1c-1,6.6-1.9,13.3-2.5,19.8c-2.6,0.9-5.1,1.9-7.7,2.9c1.8-21.1,5.6-42.5,11.3-64.1
				c3.5-1,7-2,10.5-2.9c9.1,17.4,18,34.9,26.6,52.6c-2.7,0.6-5.3,1.2-8,1.8c-2.8-5.5-5.7-10.9-8.6-16.4
				C182.3,75.7,175.1,77.8,167.9,80.1z M187.1,68.5c-2.7-5-5.3-10-8-14.9c-1.8-3.4-3.2-6.5-4.5-9.6c-0.1,0-0.1,0-0.2,0.1
				c-0.6,3.7-1.3,7.5-2.1,11.4c-1.4,6.2-2.7,12.3-3.8,18.5C174.7,71.9,180.9,70.1,187.1,68.5z"/>
			<path class="st1" d="M212.8,77.9c3.6,1.4,8.6,2.3,13.9,1.5c7.7-1.1,12.2-5.5,12.3-11.3c0.1-5.4-3.1-8.2-11.4-10.2
				c-10.1-2-16.8-5.7-17-13.9c-0.3-9,8.5-17.4,21.7-18.9c6.9-0.7,11.8,0.3,14.6,1.5c-1,2.1-1.9,4.2-2.9,6.3
				c-2.1-0.9-6.4-2.2-12.4-1.6c-9.1,1-12.6,6.4-12.6,10.4c0,5.5,4,7.4,12.6,9.5c10.6,2.6,15.5,7.1,15.2,15.5
				c-0.4,9-6.9,16.9-20.4,18.8c-5.5,0.8-11.7,0.3-15-1.2C211.8,82.3,212.3,80.1,212.8,77.9z"/>
			<path class="st1" d="M270,24c-2.9,19.3-4.9,38.6-6.1,57.8c-2.4,0-4.9,0.1-7.3,0.2c0.7-19.2,2.4-38.5,4.8-57.9
				C264.3,24,267.2,24,270,24z"/>
			<path class="st1" d="M293.4,24.6c-4,19.1-7.2,38.3-9.5,57.4c-2.4-0.1-4.8-0.2-7.2-0.2c1.9-19.1,4.6-38.3,8.3-57.5
				C287.7,24.3,290.5,24.5,293.4,24.6z"/>
			<path class="st1" d="M351.3,91c-2.9,0.6-8.2,0.6-14.6-0.9c-14.6-3.4-24.3-14.9-20-33.5c4.1-17.7,21.6-27.9,41-23.1
				c7.7,1.9,11.9,4.8,13.5,6.4c-1.5,1.7-2.9,3.4-4.3,5.1c-2.4-2.1-6.2-4.3-11.3-5.5c-14.4-3.6-27,3.3-30.9,18.1
				c-3.6,13.8,2.2,23.8,15.1,26.8c4.2,1,8.7,1.2,12,0.6C351.6,87,351.4,89,351.3,91z"/>
			<path class="st1" d="M415.5,86.3c-10.6,17.2-25.1,21.7-37.4,16.8c-12.7-5-18.4-19-12-35.5c6.8-17.2,24.1-24.8,39.8-18.3
				C422,56,424.6,71.5,415.5,86.3z M373.8,69.9c-4.9,11.5-2.9,23.7,7.1,27.7c10.1,4,20.6-3,27.3-14.5c5.8-10,6.7-23.4-5.7-28.5
				C390.2,49.6,378.8,58.1,373.8,69.9z"/>
			<path class="st1" d="M447.1,70.7c-11.7,15.9-22.7,32.1-32.8,48.7c-1.9-1.1-3.9-2.2-5.9-3.3c9.7-16.8,20.3-33.3,31.7-49.4
				C442.5,68.1,444.8,69.4,447.1,70.7z"/>
			<path class="st1" d="M424.3,125.5C435,109.3,446.6,93.4,459,78c2.4,1.6,4.9,3.1,7.3,4.8c-1,11.3-2.3,22.6-4,33.7
				c-1.2,7.8-2.8,14.4-4.8,20.5c0.1,0,0.1,0,0.2,0c4.6-6.3,9.2-11.8,15.5-18.5c5.6-6,11.3-12,17.2-17.8c1.9,1.6,3.8,3.2,5.7,4.8
				c-14.3,13.7-27.9,27.9-40.7,42.7c-1.7-1.4-3.4-2.8-5.1-4.2c2.1-11,3.9-22.1,5.3-33.3c0.9-7.4,2-14.8,3.5-21.5
				c-0.1,0-0.2-0.1-0.3-0.1c-4.3,6-8.6,11.7-14.5,19.5c-5,6.7-9.9,13.5-14.7,20.3C427.8,127.7,426.1,126.6,424.3,125.5z"/>
		</g>
	</g>
</g>
<g id="Layer_4">
	<text transform="matrix(0.8756 -0.483 0.483 0.8756 477.055 273.5681)" class="st3 st4 st5">$</text>
</g>
<g id="Layer_5">
	<text transform="matrix(0.7734 0.6339 -0.6339 0.7734 88.6155 188.2793)" class="st3 st4 st6"> €</text>
</g>
<g id="Layer_6">
</g>
</svg>
